<svg id="Layer_1" data-name="Layer 1" xmlns="http://www.w3.org/2000/svg" viewBox="0 0 278.85 81.98"><defs><style>.cls-1{fill:red;}</style></defs><title>Craic-Logo</title><path class="cls-1" d="M135.17,88.15A31.81,31.81,0,0,1,124,86.24,26.34,26.34,0,0,1,115,80.81a24.71,24.71,0,0,1-5.86-8.35,26.44,26.44,0,0,1-2.09-10.66,26.44,26.44,0,0,1,2.09-10.66A24.71,24.71,0,0,1,115,42.79,26.34,26.34,0,0,1,124,37.36a34.24,34.24,0,0,1,24.34.68,24.43,24.43,0,0,1,9.47,7.49L147.05,55.1a17.39,17.39,0,0,0-4.93-4.35A12,12,0,0,0,136,49.2a13,13,0,0,0-4.82.86,10.27,10.27,0,0,0-3.71,2.52,11.72,11.72,0,0,0-2.41,4,16.09,16.09,0,0,0,0,10.44,11.72,11.72,0,0,0,2.41,4,10.27,10.27,0,0,0,3.71,2.52,13,13,0,0,0,4.82.86,12,12,0,0,0,6.09-1.55,17.39,17.39,0,0,0,4.93-4.35l10.73,9.57a25,25,0,0,1-9.47,7.45A31.08,31.08,0,0,1,135.17,88.15Z" transform="translate(-24 -15)"/><path class="cls-1" d="M162.17,87V47.62h15.48V59.5l-2.52-3.39a13.32,13.32,0,0,1,5.76-6.91,18.52,18.52,0,0,1,9.5-2.3V61.3c-.72-.1-1.36-.17-1.91-.22s-1.11-.07-1.69-.07a9.15,9.15,0,0,0-6,1.91q-2.34,1.9-2.34,6.58V87Z" transform="translate(-24 -15)"/><path class="cls-1" d="M205.51,87.72a17.5,17.5,0,0,1-8.06-1.66,11.47,11.47,0,0,1-6.56-10.58,10.69,10.69,0,0,1,2-6.48,11.72,11.72,0,0,1,5.94-4,31.69,31.69,0,0,1,10.11-1.37h8.21v7.85h-5.61a6.66,6.66,0,0,0-3.78.83,2.81,2.81,0,0,0-1.19,2.48,2.89,2.89,0,0,0,1,2.27,4.23,4.23,0,0,0,2.85.9,5.58,5.58,0,0,0,3.06-.9,5.18,5.18,0,0,0,2.05-2.85L217.61,79a10.34,10.34,0,0,1-4,6.55A13.75,13.75,0,0,1,205.51,87.72ZM216.67,87V80l-1.15-1.88V64.9a5.48,5.48,0,0,0-1.77-4.4c-1.17-1-3.08-1.51-5.72-1.51a18.61,18.61,0,0,0-5.4.83A15.22,15.22,0,0,0,198,62.09l-5.18-10.73a27.62,27.62,0,0,1,8.28-3.31,40.38,40.38,0,0,1,9.43-1.15q10.16,0,15.73,4.53t5.58,14.4V87Z" transform="translate(-24 -15)"/><path class="cls-1" d="M247,44.45a10.29,10.29,0,0,1-7.13-2.38,7.88,7.88,0,0,1,0-11.81A10.33,10.33,0,0,1,247,27.89a10.74,10.74,0,0,1,7.13,2.23,7.16,7.16,0,0,1,2.66,5.76A7.92,7.92,0,0,1,254.11,42,10.26,10.26,0,0,1,247,44.45ZM238.85,87V47.62h16.27V87Z" transform="translate(-24 -15)"/><path class="cls-1" d="M283.48,87.72a26.79,26.79,0,0,1-12-2.59,20.17,20.17,0,0,1-8.24-7.24,19.1,19.1,0,0,1-3-10.62,19,19,0,0,1,3-10.58,20.3,20.3,0,0,1,8.24-7.2,26.79,26.79,0,0,1,12-2.59A23.4,23.4,0,0,1,295.8,50a16.08,16.08,0,0,1,7.05,8.57l-12.6,6.19a9.24,9.24,0,0,0-3-4,6.64,6.64,0,0,0-3.85-1.22,6.85,6.85,0,0,0-3.35.86A6.16,6.16,0,0,0,277.62,63a9.05,9.05,0,0,0-.9,4.28,9.28,9.28,0,0,0,.9,4.32,6.07,6.07,0,0,0,2.44,2.59,6.75,6.75,0,0,0,3.35.87,6.58,6.58,0,0,0,3.85-1.23,9.12,9.12,0,0,0,3-4l12.6,6.2a16,16,0,0,1-7.05,8.56A23.31,23.31,0,0,1,283.48,87.72Z" transform="translate(-24 -15)"/><path class="cls-1" d="M45.6,88.33H75.84V45.13H67.2a7.87,7.87,0,0,0-5,1.52,41.1,41.1,0,0,0-4.64,4.42,63.87,63.87,0,0,1-5,4.92,17.77,17.77,0,0,1-7,3.72ZM37,97V59.61a17.6,17.6,0,0,1-9.29-6A16.32,16.32,0,0,1,24,43a16.6,16.6,0,0,1,3.29-10.15,17.18,17.18,0,0,1,8.48-6.16,20.64,20.64,0,0,1,7.4-8.42A19.68,19.68,0,0,1,54.24,15a19.07,19.07,0,0,1,7.08,1.3,23,23,0,0,1,6,3.45c.72-.14,1.4-.27,2-.38a14.2,14.2,0,0,1,2.16-.16,16.65,16.65,0,0,1,12.21,5.08,16.64,16.64,0,0,1,5.07,12.2A17.28,17.28,0,0,1,88.21,41a16,16,0,0,1-1.78,4.1h6.69a8.67,8.67,0,0,1,8.64,8.64V79.69a8.66,8.66,0,0,1-8.64,8.64H84.48V97ZM32.64,43a8.66,8.66,0,0,0,8.64,8.64,8.33,8.33,0,0,0,5.89-2.26q2.43-2.28,5-5.08a40,40,0,0,1,6.1-5.35,15,15,0,0,1,8.91-2.43h13a8.67,8.67,0,0,0-8.64-8.64,12.91,12.91,0,0,0-4.53.7l-1.84.71L61.8,26.45a15.51,15.51,0,0,0-3.08-1.89,10.17,10.17,0,0,0-4.48-.92,11.44,11.44,0,0,0-6.32,1.84,11.94,11.94,0,0,0-4.37,5L42,33.68l-3.46,1.19A8.42,8.42,0,0,0,32.64,43ZM84.48,79.69h8.64V53.77H84.48ZM45.6,88.33h0Z" transform="translate(-24 -15)"/></svg>